<svg xmlns="http://www.w3.org/2000/svg" viewBox="0 0 92.41 129.53"><defs><style>.cls-1{fill:#e15d5d;}</style></defs><g id="Layer_2" data-name="Layer 2"><g id="Layer_1-2" data-name="Layer 1"><path class="cls-1" d="M92.4,121.37q0-51.9,0-103.8c0-4.4-.06-8.81,0-13.21,0-2-.58-3.52-2.52-4.31H71.42a9,9,0,0,0-3.88,5.24q-9,25.7-18.11,51.38a38.57,38.57,0,0,1-3.19,7.14A16.64,16.64,0,0,1,44,59.08q-9.6-27-19.14-53.92C24.13,3,23.29,1,21,.05,14.79.05,8.57.12,2.35,0,.57,0,0,.26,0,2.24Q.12,43.57.06,84.9c1.57,2.27,3.85,2.6,6.49,2.43a58.32,58.32,0,0,1,8.36,0c2.29.16,3-.06,2.94-2.3-.8-20.25-1.46-40.51-2.16-60.77a2,2,0,0,1,.17-.56c1.64.62,2,2.16,2.47,3.51Q28.2,54.35,38,81.53a9.29,9.29,0,0,0,13.17,5.29,5.72,5.72,0,0,0,2.73-3.71C58.23,69.77,63.23,56.67,68,43.48a29.24,29.24,0,0,1,2.79-6.22,4.84,4.84,0,0,1,1.11,3.55q0,40.27,0,80.56v4a4.14,4.14,0,0,0,4.14,4.14H90.78a1.63,1.63,0,0,0,1.63-1.63v-6.53Z"/></g></g></svg>