<svg xmlns="http://www.w3.org/2000/svg" viewBox="0 0 375.13 341.64"><defs><style>.cls-1{fill:#f59221;}.cls-2{fill:#82481e;}.cls-3{fill:#e78226;}.cls-4{fill:#dac5b6;}.cls-5{fill:#d26f29;}.cls-6{fill:#f6f6f6;}</style></defs><g id="Layer_2" data-name="Layer 2"><g id="Layer_1-2" data-name="Layer 1"><path class="cls-1" d="M364,222.32c.08.33.15.65.22,1,0,1.12-.2,2.33,1,3l0,0,.75,2c.07.33.15.65.22,1,0,1.12-.2,2.33,1.06,3l0,0c0,1.11-.23,2.3,1,3v0c0,1.12-.14,2.29,1,3l.19.19-.13.23c0,.94-.06,1.88.84,2.51l.05.15c.08,1-.11,2.14.94,2.85l.07.14.72,1.82c.09.41.17.81.26,1.22.09,1-.09,2.12.94,2.82l.06.14c0,6-.75,7-6.44,5.68-6.36-1.43-12.8-.87-19.19-1.62-13.4-1.58-26.92-2.14-40.38-3.12l-44.92-.07c-10.38,4.73-19.21,12-29.11,17.51-4.4,2.45-7.9,7.4-14,5.69l0-.09c-.6-1.31-1.87-1.6-3.06-2l-1.83-.76c-.54-1.37-1.72-1.35-2.91-1.35H174.47c-1.33,0-2.73-.13-3.29,1.54l-3.46,2.37-1.44,1-1.89,1.2c-2.74-1.52-5.47-3.06-8.21-4.56-12.61-6.9-24.91-14.38-37.93-20.54l-8,0c-1-1.25-2-1.25-3,0-11.69-.22-23.32,1.63-35,1-15.82.28-31.54,2.08-47.32,3-6.72.41-13.44.94-20.13,1.74-2.79.34-3.66-.62-3.59-3.11a.43.43,0,0,1,.24-.68,2.4,2.4,0,0,0,.78-2.21c2.47-10.48,6.43-20.48,9.86-30.65,5.17-15.37,10.5-30.69,15.77-46l75.41-21.06c1.33,2.15-.59,3.45-1.51,4.76-5.4,7.67-11,15.16-16.41,22.84-.77,1.11-3.83,2.87-.17,4.44,0,.32.08.64.1,1a10.67,10.67,0,0,0,.58,2.88q10.65,20.57,21.42,41.08c3.12,5.94,6.39,11.8,10.25,18.92,1.88-11.3-.19-21.1-.26-30.91l2.51-.16c1.61.29,3.24.48,4.81.89q17,4.45,33.91,9l1.71.44a252.41,252.41,0,0,0,11.09,38.26c1.28-3.92.41-7.62.25-11.37-.65-15-.56-30.09-1.48-45.09-.36-6-.64-12.14-2.8-17.91l0-7c.23-11.13-1.06-22.16-1.94-33.22-.87-10.89-.89-21.88-2.33-32.69-.62-4.67.54-9.62-1.71-14.08l0-1.06-.78-.91a1.61,1.61,0,0,1-.36-.77,55,55,0,0,0-1.61-5.72c-5.67-14.3-11.27-28.63-17.25-42.8-1.63-3.85-.77-4.74,3-4.74,29.65,0,59.29.08,88.94-.05,3.84,0,3.55,1.49,2.55,4.12-2.87,7.6-5.62,15.26-8.48,22.87-3.49,9.3-7.35,18.47-10,28.06l0,1c-1.09.81-1,2-1,3.17-.17,6.61-.4,13.21-.81,19.83-1.19,19.3-1.52,38.65-2.18,58,0,.33,0,.66,0,1-1.61,1.48-1,3.44-.95,5.18.47,10.06-.7,20.07-.33,30.18.49,13.24,1.09,26.49,1.31,39.75,0,.89-.3,2.11,1.78,2.23,1.72-9.64,3.65-19.31,5.06-29.06.42-2.95.84-5.49,3.24-7.39,12.14-4.13,24.56-7.26,37-10.24l1.85.34v29.45c1.42-1.25,1.91-1.49,2.11-1.87q15.41-29.65,30.79-59.33a3.4,3.4,0,0,0-.48-4.41,166.33,166.33,0,0,1-11-14c-3.18-4.75-8.22-8.28-9.55-14.26,9.52,1.57,18.59,4.84,27.83,7.45,15.13,4.28,30.18,8.81,45.26,13.24a3.05,3.05,0,0,0,1.93,2.77l.06.13c.08,1-.12,2.16.95,2.86l.05.16c.08,1-.12,2.15.95,2.84l.06.12c.07,1-.13,2.17.95,2.88l0,.13a18.64,18.64,0,0,0,.69,5.37c3.12,9,6.12,18.15,9.11,27.24C362.41,220.36,362.72,221.62,364,222.32Z"/><path class="cls-2" d="M103.27,153.35,27.86,174.41c-2.61-5.62-7.47-9.53-11-14.43-.68-.94-1.58-1.71-2.35-2.58-2-2.32-2.25-4.37.95-5.81,3.94-1.77,3.38-3.92.58-6.29a5.21,5.21,0,0,1-.7-.71c-2-2.49-6.38-3.54-6.48-6.45-.09-2.44,3.9-3.82,6.2-5.54,1.4-1,1.16-2.31,0-3.35-1-.86-2.14-1.55-3.17-2.38-1.79-1.45-4.51-2.67-5.07-4.52-.78-2.57,2.81-3,4.3-4.51,2.12-2.19,1.21-4.77.81-7.08-2.16-12.54-3.62-25.29-7-37.48C1,59.61,4.07,47.46,9,35,13.11,24.62,16.56,14,20.38,3.43c.67-1.84.94-4.76,4.24-2.76.06.54.27.5.56.14a1.71,1.71,0,0,1,2,.73c0,1.57,1.22,2.21,2.29,3,10.06,7.64,20.06,15.35,30.13,23,25,18.93,50,38,75.2,56.67,8.38,6.22,16.27,13.14,25.32,18.43a1.73,1.73,0,0,0,.37.77l.78.91,0,1.06c-11.51,9.7-22.92,19.5-34.54,29.06C119,140.81,112.14,148.36,103.27,153.35Z"/><path class="cls-2" d="M347.2,174.57c-15.08-4.43-30.13-9-45.26-13.24-9.24-2.61-18.31-5.88-27.83-7.44-5.4-2.42-9.12-7-13.49-10.72C246,130.75,231.7,118,217.27,105.38l0-1q16.9-12.61,33.82-25.22,47.1-34.95,94.16-69.94c2-1.47,5-2.31,5.14-5.55,5.52-2.63,5.92-2.48,7.73,3,5.12,15.4,10.21,30.81,15.38,46.19a15,15,0,0,1,.39,8.23C370.3,78.5,367,96,363.65,113.48c-.51,2.64-.21,4.87,2.65,6.22a24.78,24.78,0,0,1,4,3c-2.83,2.31-5.46,4.53-8.17,6.65-2.26,1.78-2.44,3,.21,4.86,5.89,4.14,5.78,4.29.73,9.23a13.38,13.38,0,0,1-1.43,1.39c-3.72,2.77-5.87,5.36,0,8.21,2.6,1.25,1.57,3,.05,4.75-4.52,5.26-8.87,10.66-13.29,16Z"/><path class="cls-3" d="M118.25,251.33c13,6.16,25.32,13.64,37.93,20.54,2.74,1.5,5.47,3,8.21,4.56-.1.34-.19.68-.28,1l-53.85,37.07-2,.52c-.46-.31-.76-.16-.94.33-26.62,8.5-53.26,16.92-79.82,25.58-3.8,1.24-5.37,1.13-6.5-3.21C14.36,312,7.34,286.34.5,260.63c-.59-2.22-1-4.59.71-6.65-.07,2.49.8,3.45,3.59,3.11,6.69-.8,13.41-1.33,20.13-1.74,15.78-1,31.5-2.77,47.32-3a32.74,32.74,0,0,0,2.09,5q16.36,26.43,32.85,52.78c.52.83.93,2,2.14,1.65s.85-1.62,1-2.54c1.66-11.59,3.35-23.19,5-34.8C116.32,266.73,117.26,259,118.25,251.33Z"/><path class="cls-3" d="M219.12,274.52c6.11,1.71,9.61-3.24,14-5.69,9.9-5.5,18.73-12.78,29.11-17.51,2.1,20.18,4.21,40.36,6.43,61.65,1.37-1.7,1.94-2.29,2.37-3,9.22-14.52,18.52-29,27.57-43.61,3-4.89,6.93-9.3,8.55-15,13.46,1,27,1.54,40.38,3.12,6.39.75,12.83.19,19.19,1.62,5.69,1.29,6.46.33,6.44-5.68,2.94,3.92,2,8.13.87,12.32-6.65,24.87-13.39,49.71-19.91,74.62-1.07,4.07-3.14,3.22-5.86,2.33q-39.09-12.8-78.22-25.48a14,14,0,0,0-1.46-.32c-4.92-3.88-9.76-7.88-14.78-11.61-10.85-8.08-20.95-17.15-32.36-24.46Z"/><path class="cls-3" d="M350.36,3.67c-.18,3.24-3.17,4.08-5.14,5.55q-47,35.07-94.16,69.94-16.94,12.57-33.82,25.22c2.68-9.59,6.54-18.76,10-28.06,2.86-7.61,5.61-15.27,8.48-22.87,1-2.63,1.29-4.13-2.55-4.12-29.65.13-59.29.09-88.94.05-3.75,0-4.61.89-3,4.74,6,14.17,11.58,28.5,17.25,42.8a55,55,0,0,1,1.61,5.72c-9.06-5.29-16.95-12.21-25.33-18.43-25.2-18.71-50.16-37.74-75.2-56.67-10.07-7.62-20.07-15.33-30.13-23-1.07-.82-2.26-1.46-2.29-3,11.56,3.72,22.44,9.1,33.62,13.76q36.57,15.24,73,30.93c5.45,2.35,11.13,2,16.71,2,28.16.21,56.32.1,84.47.23,5.07,0,9.14-2.65,13.5-4.39,32.58-13,65.07-26.24,97.6-39.36A30.85,30.85,0,0,1,350.36,3.67Z"/><path class="cls-4" d="M221.45,277.85c11.41,7.31,21.51,16.38,32.36,24.46,5,3.73,9.86,7.73,14.78,11.61-13.53,11.62-29.84,18.43-45.49,26.39a11.27,11.27,0,0,1-5.32.94c-16.8,0-33.6,0-50.39.22-5.3.07-9.58-2.52-14.12-4.4-15-6.22-30.11-12.3-43-22.55l53.85-37.07c.09,10.6-2.71,20.95-3.07,33.4,3.54-5.06,7.51-4.11,11.24-4.12,12.49,0,25,0,37.49,0,4.83,0,9.79-1.4,14.83,2.19Z"/><path class="cls-3" d="M364,222.32c-1.29-.7-1.6-2-2-3.25-3-9.09-6-18.19-9.11-27.24a18.64,18.64,0,0,1-.69-5.37C356.63,198.25,360.73,210.15,364,222.32Z"/><path class="cls-3" d="M347.2,174.57l1.27-.75.66,3.52A3.05,3.05,0,0,1,347.2,174.57Z"/><path class="cls-3" d="M365.28,226.31c-1.25-.69-1-1.9-1-3A3.45,3.45,0,0,1,365.28,226.31Z"/><path class="cls-3" d="M367.29,232.31c-1.26-.69-1-1.9-1.06-3A3.46,3.46,0,0,1,367.29,232.31Z"/><path class="cls-3" d="M368.22,235.31c-1.19-.74-1-1.93-1-3C368.41,233,368.23,234.19,368.22,235.31Z"/><path class="cls-3" d="M369.23,238.38c-1.14-.75-1-1.92-1-3A3.17,3.17,0,0,1,369.23,238.38Z"/><path class="cls-3" d="M371.12,244.31c-1.05-.71-.86-1.82-.94-2.85A3,3,0,0,1,371.12,244.31Z"/><path class="cls-3" d="M373.11,250.31c-1-.7-.85-1.81-.94-2.82C373.16,248.2,373.17,249.25,373.11,250.31Z"/><path class="cls-3" d="M352.15,186.33c-1.08-.71-.88-1.84-.95-2.88C352.29,184.16,352.2,185.25,352.15,186.33Z"/><path class="cls-3" d="M351.14,183.33c-1.07-.69-.87-1.82-.95-2.84A3,3,0,0,1,351.14,183.33Z"/><path class="cls-3" d="M350.14,180.33c-1.07-.7-.87-1.83-.95-2.86C350.29,178.17,350.19,179.26,350.14,180.33Z"/><path class="cls-3" d="M366,228.31l-.75-2C366.16,226.71,366.14,227.49,366,228.31Z"/><path class="cls-3" d="M370.13,241.31c-.9-.63-.85-1.57-.84-2.51A2.48,2.48,0,0,1,370.13,241.31Z"/><path class="cls-3" d="M371.91,246.27l-.72-1.82C372,244.82,372.08,245.5,371.91,246.27Z"/><path class="cls-4" d="M107.37,315.37c.18-.49.48-.64.94-.33Z"/><path class="cls-3" d="M217.27,105.38C231.7,118,246,130.75,260.62,143.17c4.37,3.71,8.09,8.3,13.49,10.72,1.33,6,6.37,9.5,9.55,14.25a166.33,166.33,0,0,0,11,14,3.4,3.4,0,0,1,.48,4.41q-15.42,29.66-30.79,59.33c-.2.38-.69.62-2.11,1.87V218.34c1.78-2,3.54-3.93,5.36-5.86,7.52-7.94,15.92-15,22.82-23.57.89-1.1,2.85-2.08,2.24-3.58-.78-1.89-3-1-4.48-.94-23.54.27-47.08.64-70.62,1a9,9,0,0,0-4.29,1c.66-19.33,1-38.68,2.18-58,.41-6.62.64-13.22.81-19.83C216.28,107.38,216.18,106.19,217.27,105.38Z"/><path class="cls-3" d="M103.27,153.35c8.87-5,15.7-12.54,23.45-18.91,11.62-9.56,23-19.36,34.54-29.06,2.25,4.46,1.09,9.41,1.71,14.08,1.44,10.81,1.46,21.8,2.33,32.69.88,11.06,2.17,22.09,1.94,33.22-13.7-.49-27.4.32-41.15-.79-12.51-1-25.16-.23-37.75-.24-1.17,0-2.34,0-3.16,1-3.66-1.57-.6-3.33.17-4.44,5.37-7.68,11-15.17,16.41-22.84C102.68,156.8,104.6,155.5,103.27,153.35Z"/><path class="cls-2" d="M221.45,277.85l3.15,31.06c-5-3.59-10-2.19-14.83-2.19-12.5,0-25,0-37.49,0-3.73,0-7.7-.94-11.24,4.12.36-12.45,3.16-22.8,3.07-33.4.09-.34.18-.68.28-1l1.89-1.2c.71,0,1.29-.2,1.44-1l3.46-2.37,43.08-.19,1.83.75a3.21,3.21,0,0,0,3.06,2l0,.09Z"/><path class="cls-5" d="M85.18,185.39c.82-1,2-1,3.16-1,12.59,0,25.24-.77,37.75.24,13.75,1.11,27.45.3,41.15.79l0,7c-1,4.46-2.13,8.89-3,13.37-1.44,7.56-2.72,15.16-4.07,22.74L158.5,228c-1.6-8.45-6.7-15.35-10.27-22.92-1-2.22-2.86-.86-4.31-.2-7.27,3.28-14.54,6.55-21.75,9.95-1.24.59-3.68.73-2.39,3.31l-2.51.16c0-2.1-1.67-3.15-3-4.38q-10.51-10.12-21.11-20.16c-2.63-2.5-5.29-4.95-7.93-7.43C85.26,186,85.23,185.71,85.18,185.39Z"/><path class="cls-5" d="M213.26,186.36a9,9,0,0,1,4.29-1c23.54-.32,47.08-.69,70.62-1,1.52,0,3.7-.95,4.48.94.61,1.5-1.35,2.48-2.24,3.58-6.9,8.53-15.3,15.63-22.82,23.57-1.82,1.93-3.58,3.91-5.36,5.86l-1.85-.34c.2-.6.62-1.35-.16-1.72q-12.57-6-25.17-11.9c-1.48-.69-2.54.06-3.18,1.46L221.64,228.2c-2.4-4.7-2.22-10-3.33-15-1.91-8.58-3.4-17.25-5.06-25.88C213.25,187,213.25,186.69,213.26,186.36Z"/><path class="cls-5" d="M118.25,251.33c-1,7.7-1.93,15.4-3,23.08-1.6,11.61-3.29,23.21-5,34.8-.13.92.29,2.21-1,2.54s-1.62-.82-2.14-1.65q-16.43-26.39-32.85-52.78a32.74,32.74,0,0,1-2.09-5c11.7.66,23.33-1.19,35-1,1,1.25,2,1.25,3,0Z"/><path class="cls-5" d="M307.16,251.39c-1.62,5.7-5.53,10.11-8.55,15C289.56,281,280.26,295.48,271,310c-.43.68-1,1.27-2.37,3-2.22-21.29-4.33-41.47-6.43-61.65Z"/><path class="cls-3" d="M85.28,186.35c2.64,2.48,5.3,4.93,7.93,7.43q10.58,10,21.11,20.16c1.28,1.23,2.92,2.28,3,4.38.07,9.81,2.14,19.61.26,30.91-3.86-7.12-7.13-13-10.25-18.92Q96.5,209.8,85.86,189.23A10.67,10.67,0,0,1,85.28,186.35Z"/><path class="cls-6" d="M119.78,218.16c-1.29-2.58,1.15-2.72,2.39-3.31,7.21-3.4,14.48-6.67,21.75-9.95,1.45-.66,3.27-2,4.31.2,3.57,7.57,8.67,14.47,10.27,22.92q-17-4.5-33.91-9C123,218.64,121.39,218.45,119.78,218.16Z"/><path class="cls-6" d="M221.64,228.2l10.23-22.36c.64-1.4,1.7-2.15,3.18-1.46q12.62,5.9,25.17,11.9c.78.37.36,1.12.16,1.72-12.46,3-24.88,6.11-37,10.24Z"/><path class="cls-3" d="M160.21,228.46c1.35-7.58,2.63-15.18,4.07-22.74.86-4.48,2-8.91,3-13.37,2.16,5.77,2.44,11.94,2.8,17.91.92,15,.83,30.07,1.48,45.09.16,3.75,1,7.45-.25,11.37A252.41,252.41,0,0,1,160.21,228.46Z"/><path class="cls-3" d="M221.64,228.2l1.72,0c-2.4,1.9-2.82,4.44-3.24,7.39-1.41,9.75-3.34,19.42-5.06,29.06-2.08-.12-1.77-1.34-1.78-2.23-.22-13.26-.82-26.51-1.31-39.75-.37-10.11.8-20.12.33-30.18-.09-1.74-.66-3.7.95-5.18,1.66,8.63,3.15,17.3,5.06,25.88C219.42,218.22,219.24,223.5,221.64,228.2Z"/><path class="cls-3" d="M214.26,271.66l-43.08.19c.56-1.67,2-1.54,3.29-1.54h36.88C212.54,270.31,213.72,270.29,214.26,271.66Z"/><path class="cls-3" d="M110.27,251.31c-1,1.27-2,1.27-3,0C108.26,250.06,109.26,250.06,110.27,251.31Z"/><path class="cls-3" d="M219.15,274.43a3.21,3.21,0,0,1-3.06-2C217.28,272.83,218.55,273.12,219.15,274.43Z"/><path class="cls-3" d="M167.72,274.22c-.15.81-.73,1-1.44,1Z"/><path class="cls-3" d="M161.28,104.32l-.78-.91Z"/></g></g></svg>